<svg version="1.2" xmlns="http://www.w3.org/2000/svg" viewBox="0 0 700 700" width="512" height="512">
	<title>noun-hurricane-1970756-svg</title>
	<style>
		.s0 { fill: #ffffff } 
	</style>
	<g id="Layer">
		<path id="Layer" fill-rule="evenodd" class="s0" d="m686.2 296.4c-1.4 9.9-15.5 12.8-21.2 2.9-5.7-10-11.3-17-15.6-22.7-12.7-15.6-36.8-2.8-32.5 17 38.2 76.4 77.8 208.1 9.9 257.6-8.5 7.1-19.8-2.8-17-12.7 2.8-11.4 5.7-21.3 5.7-28.4 1.4-19.8-24.1-26.8-35.4-11.3-26.9 80.7-92 201-175.5 188.3-9.9-1.4-12.8-15.6-2.9-21.3 11.4-5.6 18.4-9.9 24.1-15.5 15.6-12.8 1.4-36.8-17-32.6-76.4 36.8-208.1 76.4-257.6 8.5-7.1-9.9 2.8-21.2 12.7-18.4 10 4.2 19.9 5.7 26.9 5.7 19.9 1.4 28.4-24.1 11.4-35.4-79.3-26.9-201-92-188.3-175.5 1.4-9.9 15.6-12.8 21.3-2.9 5.6 11.4 11.3 18.4 15.5 24.1 12.8 15.6 36.8 2.8 32.6-17-38.2-76.4-76.5-208-8.5-257.6 8.5-7.1 21.2 2.9 17 14.2-2.9 9.9-5.7 19.8-5.7 26.9-1.4 18.4 25.5 26.9 35.4 9.9 26.9-80.7 92-201 178.3-188.3 9.9 1.4 12.8 15.6 2.9 21.3-11.4 5.6-18.4 9.9-24.1 15.5-15.6 12.8-1.4 36.8 17 32.6 76.4-38.2 206.6-76.4 257.6-8.5 7.1 8.5-2.8 21.2-12.8 17-11.3-4.3-21.2-5.7-28.3-5.7-19.8-1.4-26.9 24.1-9.9 35.4 80.7 26.9 201 92 184 176.9zm-250.5-97.6c0-8.5 4.2-21.3 36.8-11.4 7.1 2.9 12.7-5.6 8.5-11.3-32.6-43.9-116.1-18.4-164.2 5.7-4.2 1.4-9.9 2.8-14.1 4.2-5.7-5.6-11.4-18.4 18.4-33.9 5.6-4.3 4.2-12.8-2.9-14.2-66.5-9.9-106.1 110.4-118.9 133.1-8.5 0-21.2-4.3-11.3-36.8 1.4-7.1-5.6-12.8-11.3-8.5-43.9 32.5-18.4 114.6 5.7 164.1 1.4 4.3 2.8 9.9 4.2 14.2-5.7 5.7-18.4 11.3-34-18.4-4.2-7.1-12.7-5.7-14.1 1.4-9.9 66.5 106.1 104.7 133 118.9 0 8.5-4.2 21.2-36.8 11.3-7-2.8-12.7 5.7-8.5 11.3 32.6 43.9 114.7 18.4 164.2-5.6 4.3-1.4 9.9-2.8 14.2-4.3 5.6 5.7 11.3 18.4-18.4 34-7.1 4.3-5.7 12.7 1.4 14.2 67.9 9.9 106.1-109 118.9-133.1 8.5 0 21.2 4.3 11.3 36.8-1.4 7.1 5.7 12.8 11.3 8.5 53.8-41 0-150-9.9-178.3 5.7-5.7 18.4-11.4 34 18.4 4.2 5.6 12.7 4.2 14.1-2.9 11.4-67.9-106.1-106.1-131.6-117.4z"/>
		<path id="Layer" class="s0" d="m397.5 280.9c-1.4-1.5-4.3-2.9-5.7-4.3 0-4.2 2.9-9.9 17-5.7 2.8 1.5 5.7-2.8 4.3-5.6-15.6-19.8-53.8-8.5-77.9 2.8-2.8 0-4.2 1.4-7.1 1.4-2.8-2.8-5.6-8.5 8.5-15.5 2.9-1.5 2.9-5.7-1.4-7.1-25.5-4.3-45.3 32.5-52.4 56.6-1.4 1.4-2.8 4.2-4.2 5.7-4.3 0-9.9-2.9-5.7-17 4.3-14.2-36.8 4.2-2.8 73.6 0 2.8 1.4 4.2 1.4 7.1-2.8 2.8-8.5 5.6-15.5-8.5-1.5-2.9-5.7-2.9-7.1 1.4-4.3 31.1 50.9 49.5 62.3 56.6 0 4.2-2.9 9.9-17 5.7-2.9-1.5-5.7 2.8-4.3 5.6 15.6 19.8 53.8 8.5 77.9-2.8 2.8 0 4.2-1.4 7-1.4 2.9 2.8 5.7 8.5-8.4 15.5-2.9 1.5-2.9 5.7 1.4 7.1 25.4 4.3 45.3-32.5 52.3-56.6 1.5-1.4 2.9-4.2 4.3-5.7 4.2 0 9.9 2.9 5.6 17-1.4 2.9 2.9 5.7 5.7 4.3 25.5-18.4-1.4-72.2-4.2-83.5 2.8-2.9 8.5-5.7 15.5 8.5 1.5 2.8 5.7 2.8 7.1-1.5 2.8-25.4-32.5-45.3-56.6-53.7z"/>
	</g>
</svg>